HIERARCHY
ROOT Hips
{
	OFFSET 0.000000 0.000000 0.000000 
	CHANNELS 6 Xposition Yposition Zposition Yrotation Xrotation Zrotation
	JOINT Spine
	{
		OFFSET 0.000000 0.072080 0.012321 
		CHANNELS 3 Xrotation Yrotation Zrotation
		JOINT Spine1
		{
			OFFSET 0.000000 0.126984 -0.001294 
			CHANNELS 3 Xrotation Yrotation Zrotation
			JOINT Spine2
			{
				OFFSET 0.000000 0.106559 -0.010096 
				CHANNELS 3 Xrotation Yrotation Zrotation
				JOINT Neck
				{
					OFFSET 0.000000 0.108417 -0.034017 
					CHANNELS 3 Xrotation Yrotation Zrotation
					JOINT Neck1
					{
						OFFSET 0.000000 0.033906 0.007241 
						CHANNELS 3 Xrotation Yrotation Zrotation
						JOINT Head
						{
							OFFSET 0.000000 0.031458 0.006707 
							CHANNELS 3 Xrotation Yrotation Zrotation
							End Site
							{
								OFFSET 0.000000 0.179920 0.000962 
							}
						}
					}
				}
				JOINT LeftShoulder
				{
					OFFSET 0.048002 0.079586 -0.029634 
					CHANNELS 3 Zrotation Xrotation Yrotation
					JOINT LeftArm
					{
						OFFSET 0.096243 -0.008695 -0.014012 
						CHANNELS 3 Zrotation Xrotation Yrotation
						JOINT LeftForeArm
						{
							OFFSET 0.216305 0.000000 0.000000 
							CHANNELS 3 Xrotation Zrotation Yrotation
							JOINT LeftHand
							{
								OFFSET 0.217764 0.000000 0.000000 
								CHANNELS 3 Zrotation Yrotation Xrotation
								JOINT LeftHandThumb1
								{
									OFFSET 0.018582 -0.007835 0.020476 
									CHANNELS 3 Zrotation Xrotation Yrotation
									JOINT LeftHandThumb2
									{
										OFFSET 0.026269 -0.007835 0.022186 
										CHANNELS 3 Zrotation Xrotation Yrotation
										JOINT LeftHandThumb3
										{
											OFFSET 0.035170 -0.010504 0.017018 
											CHANNELS 3 Zrotation Xrotation Yrotation
											End Site
											{
												OFFSET 0.020312 -0.007813 0.007813 
											}
										}
									}
								}
								JOINT LeftHandMiddle1
								{
									OFFSET 0.081749 0.004803 0.003358 
									CHANNELS 3 Zrotation Xrotation Yrotation
									JOINT LeftHandMiddle2
									{
										OFFSET 0.045251 0.000000 0.000000 
										CHANNELS 3 Zrotation Xrotation Yrotation
										JOINT LeftHandMiddle3
										{
											OFFSET 0.029009 0.000000 0.000000 
											CHANNELS 3 Zrotation Xrotation Yrotation
											End Site
											{
												OFFSET 0.017969 0.000000 0.000000 
											}
										}
									}
								}
								JOINT LeftHandIndex1
								{
									OFFSET 0.081207 0.004803 0.021137 
									CHANNELS 3 Zrotation Xrotation Yrotation
									JOINT LeftHandIndex2
									{
										OFFSET 0.043354 0.000000 0.000000 
										CHANNELS 3 Zrotation Xrotation Yrotation
										JOINT LeftHandIndex3
										{
											OFFSET 0.026493 0.000000 0.000000 
											CHANNELS 3 Zrotation Xrotation Yrotation
											End Site
											{
												OFFSET 0.019531 0.000000 0.000000 
											}
										}
									}
								}
								JOINT LeftHandRing1
								{
									OFFSET 0.080666 0.002509 -0.014652 
									CHANNELS 3 Zrotation Xrotation Yrotation
									JOINT LeftHandRing2
									{
										OFFSET 0.042541 0.000000 0.000000 
										CHANNELS 3 Zrotation Xrotation Yrotation
										JOINT LeftHandRing3
										{
											OFFSET 0.029009 0.000000 0.000000 
											CHANNELS 3 Zrotation Xrotation Yrotation
											End Site
											{
												OFFSET 0.015625 0.000000 0.000000 
											}
										}
									}
								}
								JOINT LeftHandPinky1
								{
									OFFSET 0.078227 -0.000612 -0.030993 
									CHANNELS 3 Zrotation Xrotation Yrotation
									JOINT LeftHandPinky2
									{
										OFFSET 0.028721 0.000000 0.000000 
										CHANNELS 3 Zrotation Xrotation Yrotation
										JOINT LeftHandPinky3
										{
											OFFSET 0.021963 0.000000 0.000000 
											CHANNELS 3 Zrotation Xrotation Yrotation
											End Site
											{
												OFFSET 0.022656 0.000000 0.000000 
											}
										}
									}
								}
							}
						}
					}
				}
				JOINT RightShoulder
				{
					OFFSET -0.047970 0.079586 -0.029634 
					CHANNELS 3 Zrotation Xrotation Yrotation
					JOINT RightArm
					{
						OFFSET -0.096274 -0.008695 -0.014012 
						CHANNELS 3 Zrotation Xrotation Yrotation
						JOINT RightForeArm
						{
							OFFSET -0.216305 0.000000 0.000000 
							CHANNELS 3 Xrotation Zrotation Yrotation
							JOINT RightHand
							{
								OFFSET -0.217764 0.000000 0.000000 
								CHANNELS 3 Zrotation Yrotation Xrotation
								JOINT RightHandThumb1
								{
									OFFSET -0.019670 -0.007318 0.019638 
									CHANNELS 3 Zrotation Xrotation Yrotation
									JOINT RightHandThumb2
									{
										OFFSET -0.025498 -0.008492 0.023179 
										CHANNELS 3 Zrotation Xrotation Yrotation
										JOINT RightHandThumb3
										{
											OFFSET -0.034504 -0.010705 0.016680 
											CHANNELS 3 Zrotation Xrotation Yrotation
											End Site
											{
												OFFSET -0.020312 -0.007813 0.007813 
											}
										}
									}
								}
								JOINT RightHandIndex1
								{
									OFFSET -0.081770 0.003825 0.021187 
									CHANNELS 3 Zrotation Xrotation Yrotation
									JOINT RightHandIndex2
									{
										OFFSET -0.042006 0.000000 0.000000 
										CHANNELS 3 Zrotation Xrotation Yrotation
										JOINT RightHandIndex3
										{
											OFFSET -0.026449 0.000000 0.000000 
											CHANNELS 3 Zrotation Xrotation Yrotation
											End Site
											{
												OFFSET -0.020312 0.000000 0.000000 
											}
										}
									}
								}
								JOINT RightHandMiddle1
								{
									OFFSET -0.084059 0.003825 0.003342 
									CHANNELS 3 Zrotation Xrotation Yrotation
									JOINT RightHandMiddle2
									{
										OFFSET -0.043881 0.000000 0.000000 
										CHANNELS 3 Zrotation Xrotation Yrotation
										JOINT RightHandMiddle3
										{
											OFFSET -0.029191 0.000000 0.000000 
											CHANNELS 3 Zrotation Xrotation Yrotation
											End Site
											{
												OFFSET -0.017969 0.000000 0.000000 
											}
										}
									}
								}
								JOINT RightHandRing1
								{
									OFFSET -0.081798 0.003030 -0.015127 
									CHANNELS 3 Zrotation Xrotation Yrotation
									JOINT RightHandRing2
									{
										OFFSET -0.042198 0.000000 0.000000 
										CHANNELS 3 Zrotation Xrotation Yrotation
										JOINT RightHandRing3
										{
											OFFSET -0.026497 0.000000 0.000000 
											CHANNELS 3 Zrotation Xrotation Yrotation
											End Site
											{
												OFFSET -0.017188 0.000000 0.000000 
											}
										}
									}
								}
								JOINT RightHandPinky1
								{
									OFFSET -0.077902 -0.000930 -0.030891 
									CHANNELS 3 Zrotation Xrotation Yrotation
									JOINT RightHandPinky2
									{
										OFFSET -0.028538 0.000000 0.000000 
										CHANNELS 3 Zrotation Xrotation Yrotation
										JOINT RightHandPinky3
										{
											OFFSET -0.021734 0.000000 0.000000 
											CHANNELS 3 Zrotation Xrotation Yrotation
											End Site
											{
												OFFSET -0.022656 0.000000 0.000000 
											}
										}
									}
								}
							}
						}
					}
				}
			}
		}
	}
	JOINT LeftUpLeg
	{
		OFFSET 0.075264 -0.025573 0.000000 
		CHANNELS 3 Xrotation Yrotation Zrotation
		JOINT LeftLeg
		{
			OFFSET 0.000000 -0.326016 -0.013516 
			CHANNELS 3 Xrotation Yrotation Zrotation
			JOINT LeftFoot
			{
				OFFSET 0.000098 -0.306172 -0.006623 
				CHANNELS 3 Xrotation Yrotation Zrotation
				JOINT LeftToeBase
				{
					OFFSET -0.001432 -0.095259 0.064705 
					CHANNELS 3 Xrotation Yrotation Zrotation
					End Site
					{
						OFFSET 0.000000 0.000000 0.079438 
					}
				}
			}
		}
	}
	JOINT RightUpLeg
	{
		OFFSET -0.075264 -0.025573 0.000000 
		CHANNELS 3 Xrotation Yrotation Zrotation
		JOINT RightLeg
		{
			OFFSET 0.000000 -0.326016 -0.013516 
			CHANNELS 3 Xrotation Yrotation Zrotation
			JOINT RightFoot
			{
				OFFSET 0.000098 -0.306172 -0.006623 
				CHANNELS 3 Xrotation Yrotation Zrotation
				JOINT RightToeBase
				{
					OFFSET -0.001432 -0.095259 0.064705 
					CHANNELS 3 Xrotation Yrotation Zrotation
					End Site
					{
						OFFSET 0.000025 0.000000 0.079438 
					}
				}
			}
		}
	}
}
MOTION
Frames: 4
Frame Time: 0.033333
-0.001573 0.682970 -0.000977 14.137300 6.908100 -10.826300 12.033600 3.376000 -0.302400 9.256500 0.862300 -0.720600 9.250500 0.877100 -0.743700 1.465300 0.026600 -0.919900 -0.000000 0.000000 -0.000000 14.520600 0.485900 -7.255600 -19.145800 3.508100 -10.097600 -56.240700 -3.252100 -19.539600 -0.000000 0.000000 -68.166901 9.311800 0.462400 12.612500 4.151900 5.191900 11.631500 11.207600 8.671600 -5.456600 20.440800 -7.949900 -28.337299 -13.533400 0.000600 3.510200 -22.815300 0.001200 -0.005800 -21.590500 0.001100 -0.005500 -11.782800 0.000500 -0.222600 -24.665800 0.001400 -0.006300 -14.752300 0.000500 -0.003800 -14.507100 0.000700 4.683500 -39.163200 0.003400 -0.009500 -20.177799 0.000900 -0.005200 -20.681999 0.001300 0.487600 -28.670000 0.001800 -0.007200 -14.433600 0.000500 -0.003800 16.598400 2.657600 7.856200 53.496700 11.389300 18.864201 0.000000 0.000000 15.281300 2.299600 6.266400 1.717600 -8.727500 -0.507300 -8.388100 8.466000 8.233200 -8.286200 -15.826800 -21.158899 15.529900 11.512400 0.115300 6.613700 29.905600 0.001100 0.003900 24.709299 0.000700 0.003300 15.139200 0.000400 4.784500 39.124699 0.001800 0.005000 21.542299 0.000600 0.002900 13.313000 0.000300 1.190700 47.010399 0.002500 0.005800 19.998600 0.000500 0.002700 12.141200 -14.348400 -4.239000 38.339199 0.001700 0.004900 18.609200 0.000400 0.002500 -42.548500 -1.752600 -3.669700 84.914703 8.309000 1.246200 -4.487100 -0.523600 7.307900 -2.517600 0.000000 -0.000000 -11.188400 -7.380700 3.674300 41.401600 0.105300 1.243200 -27.453501 -1.840300 5.723200 -8.216000 0.000000 -0.000000 
0.019596 0.700627 0.072713 15.792000 7.483400 -8.793400 11.172700 5.175300 -3.270100 9.218400 1.408800 -1.158000 9.204600 1.415800 -1.189100 1.659300 -0.134400 -1.033800 -0.000000 0.000000 -0.000000 15.143400 -0.589900 -6.573100 -19.765499 3.498300 -9.765100 -56.444901 -3.824800 -18.741400 0.000000 -0.000000 -56.332401 3.246000 6.499500 15.963800 4.151900 5.191800 11.631500 11.349600 8.554700 -5.695700 18.897800 -6.692900 -28.206301 -15.142100 0.000500 3.234400 -23.171200 0.001200 -0.005900 -21.467501 0.001000 -0.005500 -14.845800 0.131700 0.215700 -24.974600 0.001400 -0.006300 -14.522800 0.000500 -0.003800 -15.250600 0.000500 4.249600 -40.106400 0.003500 -0.009700 -20.194300 0.000900 -0.005200 -20.643801 -0.037800 0.164800 -29.197800 0.001900 -0.007300 -14.335200 0.000500 -0.003700 15.452500 2.278800 6.702000 53.582100 12.357500 18.963400 -0.000000 0.000000 20.513599 7.226900 18.772499 -13.742500 -8.727500 -0.507400 -8.388100 11.215200 9.112900 -13.059400 -15.857400 -21.869600 17.016899 14.316000 0.303600 7.517400 30.361200 0.001100 0.004000 24.654200 0.000700 0.003300 18.799400 -0.000300 6.620500 39.902100 0.001800 0.005100 21.490900 0.000500 0.002900 14.560000 0.000000 2.711300 49.425301 0.002800 0.006000 19.981199 0.000500 0.002700 11.931400 -14.729600 -2.312100 38.901299 0.001800 0.005000 19.129299 0.000400 0.002600 -45.660702 -0.231900 -6.362700 72.445801 9.628500 0.793100 -8.593300 -0.747000 7.755900 -2.470900 0.000000 -0.000000 -1.615900 -8.144900 1.500300 29.280500 1.986500 0.664800 -9.396900 -1.506600 12.332800 -23.074600 0.000000 -0.000000 
0.041243 0.713087 0.142461 17.032101 9.038200 -7.594400 10.030000 6.370900 -5.142900 9.098700 1.753800 -1.423000 9.079100 1.755400 -1.456100 1.552100 -0.154800 -1.203700 -0.000000 0.000000 -0.000000 14.697900 -0.917700 -6.709900 -20.025499 3.471500 -9.546800 -56.117298 -5.327800 -18.363800 0.000000 -0.000000 -43.731998 0.435900 11.273600 20.173201 4.151900 5.191900 11.631500 10.103400 9.565700 -3.630700 21.213100 -8.254800 -28.371901 -19.443100 0.000700 2.400200 -23.693600 0.001300 -0.006000 -21.697800 0.001100 -0.005600 -22.283001 0.007100 -0.363700 -25.505800 0.001500 -0.006500 -13.551800 0.000400 -0.003500 -19.957300 0.000500 3.245400 -40.705898 0.003600 -0.009800 -20.553600 0.001000 -0.005300 -24.559299 -0.105700 -0.404100 -28.938101 0.001900 -0.007300 -14.729700 0.000500 -0.003800 14.677000 1.869200 5.146500 52.622398 12.534600 19.903299 0.000000 -0.000000 27.814501 8.102900 24.036800 -20.231701 -8.727500 -0.507400 -8.388100 15.806500 8.704400 -21.056601 -7.829800 -19.349501 12.020300 19.899200 0.331000 7.645300 31.837200 0.001200 0.004200 24.707899 0.000700 0.003300 23.548201 0.000900 6.958400 40.327400 0.001900 0.005100 21.285601 0.000500 0.002900 16.582701 0.000400 3.386900 50.601101 0.002900 0.006100 20.172100 0.000500 0.002700 16.179199 -15.002200 1.313500 37.988602 0.001700 0.004900 19.243099 0.000400 0.002600 -47.031300 1.011900 -7.964300 56.238800 9.497300 -0.139600 -12.238200 -1.104900 9.646600 -1.468800 0.000000 0.000000 4.360200 -9.507900 0.021000 22.526800 4.613500 0.972000 1.262200 -0.289500 11.729300 -20.351801 0.000000 -0.000000 
0.061419 0.716118 0.210279 18.174500 10.443700 -7.837800 9.041100 6.040000 -5.257500 9.079500 1.647700 -1.398400 9.061400 1.646100 -1.429000 1.203100 0.055600 -1.369100 -0.000000 0.000000 -0.000000 13.539700 -0.066300 -7.333100 -19.995600 3.382000 -9.228000 -55.430000 -7.705100 -17.870300 -0.000000 0.000000 -32.220600 -0.015000 14.857400 22.762199 4.151900 5.191900 11.631500 10.915100 8.913400 -4.969000 18.956900 -6.598100 -28.205900 -12.091000 -0.011000 3.804000 -22.629101 0.001200 -0.005800 -21.932800 0.001100 -0.005600 -6.945300 0.005600 -1.223300 -24.921301 0.001400 -0.006300 -13.339300 0.000400 -0.003500 -13.496800 -0.012100 4.672300 -37.206600 0.003100 -0.009100 -20.417999 0.000900 -0.005200 -20.761000 -0.017000 0.534200 -27.438200 0.001700 -0.006900 -14.190900 0.000500 -0.003700 14.639200 1.791600 4.797200 51.016300 11.182200 21.980700 0.000000 0.000000 34.911098 7.001800 26.637699 -19.325500 -8.727500 -0.507400 -8.388100 17.021900 8.431700 -23.156401 -2.301700 -17.197500 8.144500 18.347099 0.283300 7.395300 31.892000 0.001200 0.004200 25.060801 0.000700 0.003400 20.288300 -0.001200 5.809000 40.548698 0.001900 0.005100 21.292601 0.000500 0.002900 14.004100 -0.001000 2.519900 48.618198 0.002700 0.005900 20.452299 0.000500 0.002800 18.646299 -14.999500 2.713200 35.378502 0.001500 0.004600 19.127100 0.000400 0.002600 -46.096699 1.466700 -8.323600 38.324799 9.906000 -0.834500 -16.877701 -0.713900 9.795500 0.927800 0.000000 0.000000 7.411500 -8.850600 0.334800 23.249500 6.002700 0.221000 6.894700 0.332500 12.249400 -8.480600 0.000000 -0.000000 
